PathFileType	4	(x/y/z)	S04_P20_T17.trc
DataRate	CameraRate	NumFrames	NumMarkers	Units	OrigDataRate	OrigDataStartFrame	OrigNumFrames
240	240	4	51	mm	240	1	370
Frame#	Time	Sternum			R.Acromium			L.Acromium			Top.Head			R.ASIS			L.ASIS			R.PSIS			L.PSIS			R.Great.Tro			L.Great.Tro			R.Iliac.Crest			L.Iliac.Crest			V.Sacral			R.Thigh.Upper.Post			R.Thigh.Lower.Ant			R.Thigh.Lower.Post			R.Thigh.Upper.Ant			R.Knee.Lat			R.Knee.Med			R.Shank.Upper.Post			R.Shank.Lower.Ant			R.Shank.Lower.Post			R.Shank.Upper.Ant			R.Ankle.Lat			R.Ankle.Med			R.Heel.Upper			R.Heel.Med			R.Heel.Lat			R.Toe.Lat			R.Toe.Med			R.Toe.Tip			L.Thigh.Upper.Post			L.Thigh.Lower.Ant			L.Thigh.Lower.Post			L.Thigh.Upper.Ant			L.Knee.Lat			L.Knee.Med			L.Shank.Upper.Post			L.Shank.Lower.Ant			L.Shank.Lower.Post			L.Shank.Upper.Ant			L.Ankle.Lat			L.Ankle.Med			L.Heel.Upper			L.Heel.Med			L.Heel.Lat			L.Toe.Lat			L.Toe.Med			L.Toe.Tip			Cervical.Spine			Back			
		X1	Y1	Z1	X2	Y2	Z2	X3	Y3	Z3	X4	Y4	Z4	X5	Y5	Z5	X6	Y6	Z6	X7	Y7	Z7	X8	Y8	Z8	X9	Y9	Z9	X10	Y10	Z10	X11	Y11	Z11	X12	Y12	Z12	X13	Y13	Z13	X14	Y14	Z14	X15	Y15	Z15	X16	Y16	Z16	X17	Y17	Z17	X18	Y18	Z18	X19	Y19	Z19	X20	Y20	Z20	X21	Y21	Z21	X22	Y22	Z22	X23	Y23	Z23	X24	Y24	Z24	X25	Y25	Z25	X26	Y26	Z26	X27	Y27	Z27	X28	Y28	Z28	X29	Y29	Z29	X30	Y30	Z30	X31	Y31	Z31	X32	Y32	Z32	X33	Y33	Z33	X34	Y34	Z34	X35	Y35	Z35	X36	Y36	Z36	X37	Y37	Z37	X38	Y38	Z38	X39	Y39	Z39	X40	Y40	Z40	X41	Y41	Z41	X42	Y42	Z42	X43	Y43	Z43	X44	Y44	Z44	X45	Y45	Z45	X46	Y46	Z46	X47	Y47	Z47	X48	Y48	Z48	X49	Y49	Z49	X50	Y50	Z50	X51	Y51	Z51	

1	0	NaN	NaN	NaN	-1433.1	1498.2	464.5	-1486.1	1487.9	118.56	-1387.3	1821.2	271.81	NaN	NaN	NaN	NaN	NaN	NaN	NaN	NaN	NaN	NaN	NaN	NaN	-1484.3	910.03	484.35	-1490	919.29	103.85	-1468	1082.7	465.49	-1491.8	1087.3	128.84	-1615.6	983.93	285.08	-1540.2	664.08	467.94	-1474.1	566.28	429.38	-1557.4	575.18	453.19	-1441.4	672.58	448.46	-1549.5	498.92	444.02	-1574.3	503.72	309.73	-1683.1	300.9	433.04	NaN	NaN	NaN	-1704.2	235.59	416.15	NaN	NaN	NaN	-1727.9	124.44	395.04	-1700	131.31	306.91	-1792.8	94.973	341.31	-1784.5	61.628	313.44	-1792.9	65.24	376.66	-1625.3	45.487	429.91	-1584.3	41.853	311.36	-1519.9	52.893	359.28	-1433.8	680.9	110.97	-1323.4	617.33	106.26	-1392.4	600.71	123.07	-1372.1	696.02	91.308	-1321.9	528.59	121.55	-1305.7	516.58	248.97	-1339.3	331.81	123.49	-1244.1	276.12	113.17	-1305.8	261.28	127.57	-1279.1	345.11	108.69	-1199.5	122.14	126.68	-1192.8	135.19	219.22	-1255.9	62.45	179.06	-1237.7	43.771	210.99	-1242.4	38.99	150.29	-1073.9	101.31	100.14	-1041.2	124.67	210.88	-996.95	157.74	159.79	-1507.5	1551	302.55	-1603.1	1296.1	293.45
2	0.0041667	NaN	NaN	NaN	-1428.4	1497.9	463.91	-1481.8	1487.4	117.99	-1382.4	1820.7	271.13	NaN	NaN	NaN	NaN	NaN	NaN	NaN	NaN	NaN	NaN	NaN	NaN	-1478.6	909.37	483.71	-1484.8	918.86	103.41	-1462.7	1082.1	465.05	-1486.6	1086.7	128.34	-1610.5	983.41	284.47	-1535.1	663.56	467.49	-1468.9	565.92	428.92	-1552.6	574.75	452.77	-1436	672.32	447.69	-1547.9	499.72	444.49	-1569.3	503.24	309.44	-1680.4	301.66	432.87	NaN	NaN	NaN	-1702	236.57	415.98	NaN	NaN	NaN	-1726.8	125.51	394.83	-1699.6	132.49	306.93	-1792.1	96.731	341.21	-1784.1	63.357	313.32	-1792.5	66.969	376.55	-1625.2	45.572	429.87	-1584.1	41.847	311.4	-1519.8	52.634	359.36	-1428.7	680.44	110.67	-1318.3	616.73	106.31	-1387.5	600.22	122.86	-1366.9	695.47	91.196	-1317	527.95	121.47	-1301	515.97	248.77	-1335.4	331.21	123.24	-1240.4	274.98	113.37	-1302.4	260.52	127.43	-1274.8	344.18	108.85	-1196.8	121.01	126.9	-1190.3	133.94	219.47	-1253.7	62.054	178.95	-1235.8	43.183	210.93	-1240.3	38.478	150.25	-1071.3	99.573	100.98	-1039	122.68	211.8	-994.33	155.56	160.93	-1502.9	1550.5	301.94	-1598.3	1295.5	292.99
3	0.0083333	NaN	NaN	NaN	-1423.6	1497.5	463.28	-1477.2	1486.8	117.37	-1377.3	1820.2	270.43	NaN	NaN	NaN	NaN	NaN	NaN	NaN	NaN	NaN	NaN	NaN	NaN	-1472.7	908.71	483.05	-1479.3	918.41	102.94	-1457.3	1081.4	464.58	-1481.3	1086	127.81	-1605.1	982.88	283.82	-1529.8	663.01	467.03	-1463.5	565.55	428.46	-1547.5	574.28	452.34	-1430.4	672.04	446.93	-1546	500.43	444.93	-1564.1	502.73	309.14	-1677.5	302.48	432.71	NaN	NaN	NaN	-1699.7	237.62	415.82	NaN	NaN	NaN	-1725.7	126.67	394.63	-1699.1	133.73	306.97	-1791.4	98.63	341.12	-1783.6	65.232	313.2	-1792	68.835	376.43	-1625	45.673	429.82	-1584	41.845	311.44	-1519.6	52.363	359.44	-1423.3	679.97	110.35	-1312.9	616.12	106.37	-1382.3	599.72	122.65	-1361.4	694.91	91.089	-1311.8	527.28	121.38	-1296.2	515.34	248.56	-1331.3	330.6	122.99	-1236.7	273.8	113.58	-1298.8	259.74	127.28	-1270.4	343.21	109.02	-1194.2	119.84	127.12	-1187.8	132.64	219.74	-1251.5	61.684	178.83	-1233.9	42.614	210.87	-1238.3	37.978	150.2	-1068.6	97.721	101.86	-1036.7	120.54	212.76	-991.65	153.21	162.13	-1498.1	1550	301.29	-1593.2	1294.8	292.5
4	0.0125	NaN	NaN	NaN	-1418.6	1497.2	462.63	-1472.4	1486.3	116.73	-1372.1	1819.6	269.7	NaN	NaN	NaN	NaN	NaN	NaN	NaN	NaN	NaN	NaN	NaN	NaN	-1466.6	908.04	482.37	-1473.6	917.96	102.45	-1451.6	1080.7	464.09	-1475.7	1085.3	127.25	-1599.6	982.35	283.14	-1524.2	662.42	466.55	-1457.8	565.17	427.99	-1542.2	573.79	451.89	-1424.5	671.74	446.18	-1543.6	501.01	445.33	-1558.6	502.19	308.84	-1674.4	303.34	432.54	NaN	NaN	NaN	-1697.3	238.74	415.66	NaN	NaN	NaN	-1724.4	127.91	394.45	-1698.5	135.05	307.01	-1790.6	100.67	341.03	-1783.1	67.26	313.07	-1791.5	70.846	376.32	-1624.9	45.791	429.78	-1583.8	41.85	311.48	-1519.4	52.081	359.52	-1417.7	679.49	110.02	-1307.4	615.51	106.43	-1377	599.22	122.42	-1355.7	694.35	90.987	-1306.5	526.61	121.28	-1291.2	514.7	248.34	-1327.1	330	122.72	-1232.8	272.59	113.8	-1295.1	258.95	127.12	-1265.9	342.23	109.19	-1191.5	118.63	127.35	-1185.4	131.3	220.02	-1249.2	61.354	178.71	-1232.1	42.079	210.82	-1236.3	37.501	150.16	-1066	95.755	102.78	-1034.5	118.27	213.76	-988.96	150.68	163.37	-1493.1	1549.5	300.62	-1587.9	1294.2	291.97
